<?xml version="1.0" encoding="UTF-8" standalone="no"?>
<!-- Created with Inkscape (http://www.inkscape.org/) -->

<svg
   xmlns:dc="http://purl.org/dc/elements/1.1/"
   xmlns:cc="http://creativecommons.org/ns#"
   xmlns:rdf="http://www.w3.org/1999/02/22-rdf-syntax-ns#"
   xmlns:svg="http://www.w3.org/2000/svg"
   xmlns="http://www.w3.org/2000/svg"
   xmlns:sodipodi="http://sodipodi.sourceforge.net/DTD/sodipodi-0.dtd"
   xmlns:inkscape="http://www.inkscape.org/namespaces/inkscape"
   width="150.95358"
   height="27.635759"
   viewBox="0 0 39.939803 7.3119614"
   version="1.1"
   id="svg8224"
   inkscape:version="0.92.0 r15299"
   sodipodi:docname="mackenzie investments.svg">
  <defs
     id="defs8218">
    <clipPath
       id="clipPath6820"
       clipPathUnits="userSpaceOnUse">
      <path
         inkscape:connector-curvature="0"
         id="path6818"
         d="m 288.337,418.701 h 177.131 v 20.917 H 288.337 Z" />
    </clipPath>
  </defs>
  <sodipodi:namedview
     id="base"
     pagecolor="#ffffff"
     bordercolor="#666666"
     borderopacity="1.0"
     inkscape:pageopacity="0.0"
     inkscape:pageshadow="2"
     inkscape:zoom="5.3483212"
     inkscape:cx="74.976798"
     inkscape:cy="13.317879"
     inkscape:document-units="mm"
     inkscape:current-layer="layer1"
     showgrid="false"
     fit-margin-top="0"
     fit-margin-left="0"
     fit-margin-right="0"
     fit-margin-bottom="0"
     units="px"
     inkscape:window-width="1280"
     inkscape:window-height="744"
     inkscape:window-x="-4"
     inkscape:window-y="-4"
     inkscape:window-maximized="1" />
  <metadata
     id="metadata8221">
    <rdf:RDF>
      <cc:Work
         rdf:about="">
        <dc:format>image/svg+xml</dc:format>
        <dc:type
           rdf:resource="http://purl.org/dc/dcmitype/StillImage" />
        <dc:title></dc:title>
      </cc:Work>
    </rdf:RDF>
  </metadata>
  <g
     inkscape:label="Layer 1"
     inkscape:groupmode="layer"
     id="layer1"
     transform="translate(-43.595628,-185.27648)">
    <g
       id="g8800"
       transform="translate(0.13228963,-0.13229246)">
      <g
         transform="matrix(0.35277777,0,0,-0.35277777,44.525868,189.12144)"
         id="g6822">
        <path
           inkscape:connector-curvature="0"
           id="path6824"
           style="fill:#75b5e6;fill-opacity:1;fill-rule:nonzero;stroke:none"
           d="m 0,0 -1.358,-0.451 0.323,1.035 z" />
      </g>
      <g
         transform="matrix(0.35277777,0,0,-0.35277777,53.854794,188.13532)"
         id="g6826">
        <path
           inkscape:connector-curvature="0"
           id="path6828"
           style="fill:#75b5e6;fill-opacity:1;fill-rule:nonzero;stroke:none"
           d="m 0,0 1.616,-4.774 c 0.754,-0.56 1.421,-1.188 1.96,-1.895 0.136,-0.175 0.272,-0.367 0.381,-0.559 L 4.038,-7.336 2.709,-3.232 1.353,1.273 0.56,0.731 1.113,-0.798 C 0.765,-0.513 0.388,-0.251 0,0" />
      </g>
      <g
         transform="matrix(0.35277777,0,0,-0.35277777,50.804571,187.0379)"
         id="g6830">
        <path
           inkscape:connector-curvature="0"
           id="path6832"
           style="fill:#1f518a;fill-opacity:1;fill-rule:nonzero;stroke:none"
           d="m 0,0 -0.266,-0.09 -17.532,-5.814 -1.035,0.58 0.828,2.678 0.576,1.849 0.905,1.139 h 0.571 l -0.99,-2.731 -0.549,-1.517 c 0.491,0.405 1.026,0.765 1.575,1.098 0.081,0.239 0.167,0.482 0.248,0.72 0.414,1.22 0.832,2.439 1.255,3.654 0.027,0.095 0.081,0.175 0.144,0.266 0.419,0.292 0.864,0.553 1.314,0.801 0.873,0.495 1.774,0.918 2.7,1.269 0.32,-0.059 0.635,-0.117 0.941,-0.167 -0.261,-1.399 -0.522,-2.799 -0.797,-4.203 1.193,0.302 2.439,0.513 3.704,0.634 l 0.184,3.619 0.288,0.45 c 0.671,0.008 1.368,0.008 2.075,0.008 0.702,0 1.404,0 2.075,-0.008 L -1.49,3.785 -1.368,1.332 -1.305,0.166 C -0.927,0.131 -0.549,0.081 -0.171,0.027 -0.117,0.022 -0.054,0.009 0,0" />
      </g>
      <g
         transform="matrix(0.35277777,0,0,-0.35277777,54.42513,189.81977)"
         id="g6834">
        <path
           inkscape:connector-curvature="0"
           id="path6836"
           style="fill:#192c4e;fill-opacity:1;fill-rule:nonzero;stroke:none"
           d="M 0,0 C -1.361,1.012 -3.011,1.797 -4.744,2.415 -4.93,2.48 -5.127,2.533 -5.316,2.594 l 3.435,2.351 C -1.79,4.888 -1.703,4.831 -1.615,4.774 Z" />
      </g>
      <g
         transform="matrix(0.35277777,0,0,-0.35277777,52.950871,186.29019)"
         id="g6838">
        <path
           inkscape:connector-curvature="0"
           id="path6840"
           style="fill:#1f518a;fill-opacity:1;fill-rule:nonzero;stroke:none"
           d="M 0,0 -3.996,-0.765 -4.05,-0.774 c -0.049,0.252 -0.099,0.508 -0.144,0.765 -0.103,0.54 -0.207,1.08 -0.306,1.624 0.315,0.05 0.634,0.108 0.945,0.167 0.477,-0.18 0.94,-0.383 1.399,-0.598 0.32,-0.149 0.635,-0.316 0.941,-0.482 C -1.094,0.639 -0.977,0.58 -0.86,0.513 -0.572,0.355 -0.283,0.18 0,0" />
      </g>
      <g
         transform="matrix(0.35277777,0,0,-0.35277777,43.792831,190.09663)"
         id="g6842">
        <path
           inkscape:connector-curvature="0"
           id="path6844"
           style="fill:#192c4e;fill-opacity:1;fill-rule:nonzero;stroke:none"
           d="m 0,0 -0.559,-1.793 c 0.135,0.225 0.289,0.45 0.453,0.658 0.327,0.431 0.702,0.831 1.112,1.205 L 0.133,0.426 Z" />
      </g>
      <g
         transform="matrix(0.35277777,0,0,-0.35277777,44.526115,189.12137)"
         id="g6846">
        <path
           inkscape:connector-curvature="0"
           id="path6848"
           style="fill:#1f518a;fill-opacity:1;fill-rule:nonzero;stroke:none"
           d="m 0,0 -1.359,-0.451 -0.587,-1.887 0.874,-0.356 c 0.761,0.695 1.651,1.298 2.623,1.821 z" />
      </g>
      <g
         transform="matrix(0.35277777,0,0,-0.35277777,54.221894,187.32009)"
         id="g6850">
        <path
           inkscape:connector-curvature="0"
           id="path6852"
           style="fill:#1f518a;fill-opacity:1;fill-rule:nonzero;stroke:none"
           d="m 0,0 -0.906,1.15 h -0.561 l 0.987,-2.73 0.792,0.542 z" />
      </g>
      <g
         transform="matrix(0.35277777,0,0,-0.35277777,50.710909,187.06969)"
         id="g6854">
        <path
           inkscape:connector-curvature="0"
           id="path6856"
           style="fill:#75b5e6;fill-opacity:1;fill-rule:nonzero;stroke:none"
           d="m 0,0 -2.997,-3.843 c -0.198,0.005 -0.396,0.014 -0.599,0.014 -0.823,0 -1.638,-0.041 -2.434,-0.104 -1.233,-0.09 -2.403,-0.283 -3.582,-0.531 -0.198,-0.045 -0.396,-0.081 -0.594,-0.121 -0.954,-0.221 -1.877,-0.482 -2.772,-0.797 -1.049,-0.369 -2.061,-0.801 -3.002,-1.305 l -1.552,0.873 z" />
      </g>
      <g
         transform="matrix(0.35277777,0,0,-0.35277777,53.762084,188.07613)"
         id="g6858">
        <path
           inkscape:connector-curvature="0"
           id="path6860"
           style="fill:#e9641a;fill-opacity:1;fill-rule:nonzero;stroke:none"
           d="m 0,0 -3.438,-2.349 c -0.72,0.229 -1.453,0.441 -2.205,0.616 -0.211,0.041 -0.405,0.077 -0.607,0.122 -1.161,0.247 -2.336,0.432 -3.555,0.531 -0.455,0.036 -0.914,0.059 -1.373,0.076 -0.153,0.009 -0.311,0.009 -0.468,0.014 l 2.997,3.843 0.266,0.09 c 0.247,-0.036 0.49,-0.072 0.733,-0.117 0.553,-0.099 1.103,-0.216 1.647,-0.351 -0.076,0.396 -0.153,0.788 -0.225,1.183 -0.036,0.198 -0.077,0.392 -0.113,0.59 -0.004,0.013 -0.004,0.027 -0.008,0.04 l 0.053,0.009 3.997,0.765 C -2.264,5.04 -2.227,5.017 -2.191,4.995 -2.07,4.918 -1.948,4.846 -1.827,4.761 -1.782,4.693 -1.75,4.635 -1.724,4.567 -1.706,4.527 -1.692,4.486 -1.678,4.441 -1.188,3.001 -0.689,1.57 -0.211,0.135 -0.139,0.094 -0.068,0.045 0,0" />
      </g>
      <g
         transform="matrix(0.35277777,0,0,-0.35277777,54.84169,192.02703)"
         id="g6862">
        <path
           inkscape:connector-curvature="0"
           id="path6864"
           style="fill:#192c4e;fill-opacity:1;fill-rule:nonzero;stroke:none"
           d="m 0,0 c 0.026,0.173 0.055,1.615 0.055,1.791 0,2.693 -3.079,5.044 -7.655,6.307 L -10.157,6.35 C -4.542,5.399 -0.439,2.94 0,0" />
      </g>
      <g
         transform="matrix(0.35277777,0,0,-0.35277777,44.01882,191.39531)"
         id="g6866">
        <path
           inkscape:connector-curvature="0"
           id="path6868"
           style="fill:#192c4e;fill-opacity:1;fill-rule:nonzero;stroke:none"
           d="m 0,0 c 0,-0.176 0.03,-1.618 0.056,-1.791 0.238,1.596 1.558,3.049 3.611,4.198 L 1.607,3.246 C 0.58,2.268 0,1.167 0,0" />
      </g>
      <g
         transform="matrix(0.35277777,0,0,-0.35277777,45.462175,189.64803)"
         id="g6870">
        <path
           inkscape:connector-curvature="0"
           id="path6872"
           style="fill:#1f518a;fill-opacity:1;fill-rule:nonzero;stroke:none"
           d="m 0,0 c -0.99,-0.507 -1.829,-1.082 -2.485,-1.707 l 2.061,-0.839 c 0.819,0.458 1.753,0.868 2.784,1.218 z" />
      </g>
      <g
         transform="matrix(0.35277777,0,0,-0.35277777,49.344071,188.82384)"
         id="g6874">
        <path
           inkscape:connector-curvature="0"
           id="path6876"
           style="fill:#75b5e6;fill-opacity:1;fill-rule:nonzero;stroke:none"
           d="m 0,0 -1.75,-2.25 -0.122,-0.13 c -2.502,-0.167 -4.81,-0.617 -6.773,-1.283 l -2.358,1.327 C -8.253,-0.927 -4.347,-0.036 0,0" />
      </g>
      <g
         transform="matrix(0.35277777,0,0,-0.35277777,51.258385,189.78692)"
         id="g6878">
        <path
           inkscape:connector-curvature="0"
           id="path6880"
           style="fill:#1f518a;fill-opacity:1;fill-rule:nonzero;stroke:none"
           d="M 0,0 V 0 L 2.557,1.748 Z" />
      </g>
      <g
         transform="matrix(0.35277777,0,0,-0.35277777,52.160296,189.1715)"
         id="g6882">
        <path
           inkscape:connector-curvature="0"
           id="path6884"
           style="fill:#e9641a;fill-opacity:1;fill-rule:nonzero;stroke:none"
           d="m 0,0 -2.556,-1.741 c -1.611,0.27 -3.343,0.418 -5.157,0.418 -0.652,0 -1.291,-0.022 -1.921,-0.059 -0.072,-0.004 -0.149,-0.008 -0.221,-0.013 l 0.122,0.131 1.75,2.25 h 0.32 C -4.869,0.986 -2.254,0.626 0,0" />
      </g>
      <g
         transform="matrix(0.35277777,0,0,-0.35277777,57.494332,186.14904)"
         id="g6986">
        <path
           inkscape:connector-curvature="0"
           id="path6988"
           style="fill:#192c4e;fill-opacity:1;fill-rule:nonzero;stroke:none"
           d="M 0,0 H 1.627 L 4.751,-7.225 H 4.777 L 7.928,0 H 9.516 V -9.217 H 8.422 v 7.733 H 8.396 L 5.09,-9.217 H 4.426 L 1.119,-1.484 H 1.093 V -9.217 H 0 Z" />
      </g>
      <g
         transform="matrix(0.35277777,0,0,-0.35277777,62.890314,186.64512)"
         id="g6990">
        <path
           inkscape:connector-curvature="0"
           id="path6992"
           style="fill:#192c4e;fill-opacity:1;fill-rule:nonzero;stroke:none"
           d="M 0,0 H -0.026 L -1.939,-4.53 H 1.823 Z M -0.495,1.406 H 0.534 L 4.452,-7.81 H 3.177 L 2.239,-5.545 H -2.369 L -3.32,-7.81 h -1.236 z" />
      </g>
      <g
         transform="matrix(0.35277777,0,0,-0.35277777,67.057819,186.8196)"
         id="g6994">
        <path
           inkscape:connector-curvature="0"
           id="path6996"
           style="fill:#192c4e;fill-opacity:1;fill-rule:nonzero;stroke:none"
           d="m 0,0 c -0.278,0.373 -0.621,0.653 -1.028,0.84 -0.408,0.186 -0.833,0.28 -1.276,0.28 -0.512,0 -0.983,-0.105 -1.413,-0.313 -0.429,-0.208 -0.8,-0.488 -1.112,-0.84 -0.313,-0.351 -0.556,-0.759 -0.729,-1.223 -0.174,-0.464 -0.261,-0.948 -0.261,-1.452 0,-0.538 0.087,-1.039 0.261,-1.503 0.173,-0.465 0.414,-0.868 0.722,-1.211 0.308,-0.343 0.677,-0.614 1.107,-0.813 0.429,-0.2 0.904,-0.3 1.425,-0.3 0.564,0 1.067,0.111 1.51,0.332 0.443,0.222 0.829,0.541 1.159,0.957 l 0.82,-0.69 C 0.768,-6.492 0.267,-6.899 -0.319,-7.16 c -0.586,-0.26 -1.247,-0.39 -1.985,-0.39 -0.66,0 -1.276,0.121 -1.849,0.364 -0.572,0.243 -1.069,0.58 -1.49,1.009 -0.421,0.43 -0.751,0.94 -0.99,1.53 -0.238,0.59 -0.357,1.237 -0.357,1.939 0,0.677 0.114,1.311 0.344,1.901 0.23,0.59 0.554,1.102 0.971,1.536 0.416,0.434 0.911,0.776 1.483,1.028 0.573,0.252 1.202,0.378 1.888,0.378 0.625,0 1.226,-0.113 1.803,-0.339 C 0.076,1.571 0.56,1.202 0.95,0.69 Z" />
      </g>
      <g
         transform="matrix(0.35277777,0,0,-0.35277777,68.013036,186.14904)"
         id="g6998">
        <path
           inkscape:connector-curvature="0"
           id="path7000"
           style="fill:#192c4e;fill-opacity:1;fill-rule:nonzero;stroke:none"
           d="M 0,0 H 1.094 V -3.984 H 1.25 L 5.441,0 H 7.017 L 2.461,-4.205 7.238,-9.217 H 5.637 L 1.25,-4.53 H 1.094 V -9.217 H 0 Z" />
      </g>
      <g
         transform="matrix(0.35277777,0,0,-0.35277777,71.018632,186.14904)"
         id="g7002">
        <path
           inkscape:connector-curvature="0"
           id="path7004"
           style="fill:#192c4e;fill-opacity:1;fill-rule:nonzero;stroke:none"
           d="m 0,0 h 5.793 v -1.015 h -4.7 v -2.89 H 5.481 V -4.921 H 1.093 v -3.28 H 6.027 V -9.217 H 0 Z" />
      </g>
      <g
         transform="matrix(0.35277777,0,0,-0.35277777,73.719287,186.14904)"
         id="g7006">
        <path
           inkscape:connector-curvature="0"
           id="path7008"
           style="fill:#192c4e;fill-opacity:1;fill-rule:nonzero;stroke:none"
           d="M 0,0 H 1.38 L 6.717,-7.654 H 6.743 V 0 H 7.836 V -9.217 H 6.457 L 1.12,-1.562 H 1.094 V -9.217 H 0 Z" />
      </g>
      <g
         transform="matrix(0.35277777,0,0,-0.35277777,77.111139,189.05607)"
         id="g7010">
        <path
           inkscape:connector-curvature="0"
           id="path7012"
           style="fill:#192c4e;fill-opacity:1;fill-rule:nonzero;stroke:none"
           d="M 0,0 5.324,7.225 H 0.078 V 8.24 H 6.652 V 7.303 L 1.328,0.039 H 6.717 V -0.976 H 0 Z" />
      </g>
      <path
         inkscape:connector-curvature="0"
         id="path7014"
         style="fill:#192c4e;fill-opacity:1;fill-rule:nonzero;stroke:none;stroke-width:0.35277778"
         d="m 80.153212,186.1489 h 0.385939 v 3.25155 h -0.385939 z" />
      <g
         transform="matrix(0.35277777,0,0,-0.35277777,81.144659,186.14904)"
         id="g7016">
        <path
           inkscape:connector-curvature="0"
           id="path7018"
           style="fill:#192c4e;fill-opacity:1;fill-rule:nonzero;stroke:none"
           d="m 0,0 h 5.793 v -1.015 h -4.7 v -2.89 H 5.481 V -4.921 H 1.093 v -3.28 H 6.027 V -9.217 H 0 Z" />
      </g>
      <path
         inkscape:connector-curvature="0"
         id="path7020"
         style="fill:#192c4e;fill-opacity:1;fill-rule:nonzero;stroke:none;stroke-width:0.35277778"
         d="m 57.516874,190.78158 h 0.210961 v 1.77659 h -0.210961 z" />
      <g
         transform="matrix(0.35277777,0,0,-0.35277777,58.066643,191.66229)"
         id="g7022">
        <path
           inkscape:connector-curvature="0"
           id="path7024"
           style="fill:#192c4e;fill-opacity:1;fill-rule:nonzero;stroke:none"
           d="m 0,0 c 0,0.152 -0.005,0.294 -0.014,0.427 -0.01,0.132 -0.014,0.254 -0.014,0.362 H 0.498 C 0.498,0.699 0.5,0.609 0.505,0.519 0.51,0.429 0.512,0.337 0.512,0.242 h 0.014 c 0.038,0.08 0.092,0.159 0.161,0.234 0.068,0.077 0.15,0.144 0.245,0.203 0.095,0.059 0.201,0.107 0.32,0.142 0.118,0.036 0.247,0.054 0.384,0.054 0.218,0 0.407,-0.033 0.566,-0.1 C 2.36,0.709 2.492,0.616 2.596,0.498 2.701,0.379 2.778,0.236 2.828,0.068 2.877,-0.101 2.902,-0.285 2.902,-0.484 V -2.539 H 2.347 v 1.998 c 0,0.28 -0.061,0.5 -0.185,0.662 C 2.039,0.282 1.847,0.363 1.586,0.363 1.406,0.363 1.251,0.332 1.12,0.27 0.99,0.209 0.883,0.121 0.8,0.007 0.717,-0.107 0.656,-0.242 0.615,-0.398 0.575,-0.555 0.555,-0.728 0.555,-0.918 V -2.539 H 0 Z" />
      </g>
      <g
         transform="matrix(0.35277777,0,0,-0.35277777,59.97376,192.55813)"
         id="g7026">
        <path
           inkscape:connector-curvature="0"
           id="path7028"
           style="fill:#192c4e;fill-opacity:1;fill-rule:nonzero;stroke:none"
           d="M 0,0 H -0.612 L -1.97,3.329 h 0.647 l 1.039,-2.61 h 0.014 l 0.989,2.61 h 0.597 z" />
      </g>
      <g
         transform="matrix(0.35277777,0,0,-0.35277777,61.529509,191.8656)"
         id="g7030">
        <path
           inkscape:connector-curvature="0"
           id="path7032"
           style="fill:#192c4e;fill-opacity:1;fill-rule:nonzero;stroke:none"
           d="M 0,0 C -0.009,0.285 -0.102,0.512 -0.277,0.683 -0.453,0.854 -0.695,0.939 -1.003,0.939 -1.311,0.939 -1.56,0.854 -1.75,0.683 -1.939,0.512 -2.053,0.285 -2.091,0 Z M 0.477,-1.359 C 0.278,-1.615 0.059,-1.794 -0.178,-1.895 -0.415,-1.997 -0.69,-2.049 -1.003,-2.049 c -0.261,0 -0.496,0.047 -0.704,0.139 -0.209,0.093 -0.385,0.217 -0.53,0.374 -0.145,0.156 -0.256,0.341 -0.334,0.554 -0.079,0.214 -0.118,0.441 -0.118,0.683 0,0.256 0.043,0.492 0.129,0.708 0.085,0.216 0.203,0.401 0.355,0.555 0.152,0.154 0.332,0.274 0.54,0.359 0.209,0.086 0.437,0.128 0.684,0.128 0.232,0 0.445,-0.039 0.64,-0.117 C -0.147,1.255 0.02,1.142 0.16,0.992 0.3,0.843 0.408,0.66 0.484,0.445 0.559,0.229 0.598,-0.017 0.598,-0.292 V -0.47 h -2.689 c 0.009,-0.142 0.044,-0.278 0.103,-0.408 0.059,-0.131 0.136,-0.244 0.231,-0.342 0.095,-0.097 0.206,-0.174 0.335,-0.231 0.127,-0.057 0.267,-0.085 0.419,-0.085 0.242,0 0.446,0.042 0.612,0.128 0.166,0.085 0.315,0.21 0.448,0.377 z" />
      </g>
      <g
         transform="matrix(0.35277777,0,0,-0.35277777,62.114027,192.24952)"
         id="g7034">
        <path
           inkscape:connector-curvature="0"
           id="path7036"
           style="fill:#192c4e;fill-opacity:1;fill-rule:nonzero;stroke:none"
           d="m 0,0 c 0.109,-0.137 0.229,-0.247 0.359,-0.327 0.131,-0.081 0.295,-0.121 0.495,-0.121 0.085,0 0.171,0.01 0.259,0.028 0.088,0.019 0.167,0.05 0.238,0.093 0.072,0.043 0.129,0.096 0.171,0.16 0.043,0.064 0.064,0.141 0.064,0.231 0,0.09 -0.02,0.164 -0.06,0.221 C 1.485,0.341 1.432,0.39 1.366,0.43 1.299,0.47 1.224,0.503 1.138,0.526 1.053,0.55 0.965,0.571 0.875,0.591 0.718,0.624 0.569,0.662 0.427,0.704 0.284,0.747 0.16,0.803 0.054,0.871 -0.054,0.94 -0.139,1.029 -0.203,1.138 c -0.064,0.109 -0.096,0.249 -0.096,0.42 0,0.161 0.036,0.303 0.107,0.427 0.071,0.123 0.166,0.225 0.284,0.305 0.119,0.081 0.252,0.143 0.399,0.186 0.147,0.042 0.299,0.063 0.455,0.063 0.237,0 0.456,-0.047 0.658,-0.142 C 1.805,2.302 1.963,2.148 2.077,1.935 L 1.615,1.629 C 1.543,1.748 1.45,1.844 1.334,1.917 1.217,1.99 1.076,2.027 0.91,2.027 0.835,2.027 0.757,2.018 0.679,1.999 0.601,1.98 0.531,1.951 0.469,1.914 0.408,1.876 0.357,1.827 0.317,1.768 0.276,1.709 0.256,1.641 0.256,1.565 0.256,1.494 0.279,1.433 0.324,1.383 0.369,1.334 0.43,1.29 0.508,1.252 0.587,1.214 0.677,1.181 0.779,1.153 0.881,1.124 0.986,1.1 1.095,1.081 1.242,1.053 1.382,1.016 1.515,0.971 1.648,0.926 1.764,0.865 1.863,0.79 1.963,0.714 2.042,0.619 2.098,0.505 2.155,0.391 2.184,0.252 2.184,0.085 2.184,-0.104 2.146,-0.265 2.07,-0.398 1.994,-0.531 1.893,-0.639 1.768,-0.722 1.642,-0.805 1.499,-0.865 1.341,-0.903 1.182,-0.941 1.019,-0.96 0.854,-0.96 c -0.285,0 -0.53,0.044 -0.737,0.132 -0.206,0.087 -0.392,0.25 -0.558,0.486 z" />
      </g>
      <g
         transform="matrix(0.35277777,0,0,-0.35277777,63.800269,191.54929)"
         id="g7038">
        <path
           inkscape:connector-curvature="0"
           id="path7040"
           style="fill:#192c4e;fill-opacity:1;fill-rule:nonzero;stroke:none"
           d="m 0,0 h -0.981 v -1.665 c 0,-0.109 0.002,-0.21 0.006,-0.302 0.005,-0.092 0.024,-0.173 0.057,-0.242 0.034,-0.068 0.083,-0.123 0.15,-0.163 0.066,-0.041 0.161,-0.061 0.284,-0.061 0.081,0 0.164,0.01 0.25,0.029 0.085,0.018 0.165,0.047 0.241,0.085 l 0.021,-0.505 c -0.094,-0.043 -0.2,-0.074 -0.316,-0.092 -0.116,-0.019 -0.227,-0.029 -0.331,-0.029 -0.199,0 -0.358,0.026 -0.476,0.078 -0.119,0.052 -0.211,0.126 -0.278,0.221 -0.067,0.095 -0.11,0.212 -0.131,0.352 -0.021,0.14 -0.032,0.295 -0.032,0.466 V 0 h -0.726 v 0.469 h 0.726 v 0.946 h 0.555 V 0.469 H 0 Z" />
      </g>
      <g
         transform="matrix(0.35277777,0,0,-0.35277777,64.086019,191.66229)"
         id="g7042">
        <path
           inkscape:connector-curvature="0"
           id="path7044"
           style="fill:#192c4e;fill-opacity:1;fill-rule:nonzero;stroke:none"
           d="M 0,0 C 0,0.152 -0.004,0.294 -0.014,0.427 -0.023,0.559 -0.028,0.681 -0.028,0.789 H 0.498 C 0.498,0.699 0.5,0.609 0.505,0.519 0.51,0.429 0.512,0.337 0.512,0.242 h 0.015 c 0.037,0.08 0.091,0.159 0.16,0.234 0.069,0.077 0.15,0.144 0.245,0.203 0.095,0.059 0.202,0.107 0.32,0.142 0.118,0.036 0.247,0.054 0.384,0.054 0.18,0 0.331,-0.023 0.452,-0.068 C 2.209,0.762 2.309,0.708 2.39,0.643 2.471,0.58 2.534,0.511 2.579,0.437 2.624,0.364 2.66,0.298 2.689,0.242 2.812,0.441 2.954,0.596 3.116,0.708 3.277,0.819 3.486,0.875 3.742,0.875 3.979,0.875 4.178,0.843 4.339,0.779 4.5,0.715 4.63,0.622 4.73,0.502 4.83,0.381 4.901,0.233 4.944,0.06 4.986,-0.113 5.008,-0.306 5.008,-0.519 v -2.02 H 4.453 v 1.991 c 0,0.114 -0.012,0.225 -0.036,0.334 C 4.394,-0.104 4.351,-0.007 4.289,0.078 4.228,0.164 4.145,0.232 4.04,0.285 3.936,0.337 3.803,0.363 3.642,0.363 3.523,0.363 3.412,0.339 3.308,0.292 3.203,0.244 3.112,0.178 3.034,0.092 2.956,0.007 2.894,-0.096 2.849,-0.217 2.804,-0.338 2.781,-0.472 2.781,-0.619 v -1.92 H 2.227 v 1.885 c 0,0.369 -0.05,0.631 -0.15,0.785 C 1.978,0.286 1.814,0.363 1.586,0.363 1.406,0.363 1.251,0.332 1.121,0.27 0.99,0.209 0.883,0.121 0.801,0.007 0.717,-0.107 0.656,-0.242 0.616,-0.398 0.575,-0.555 0.555,-0.728 0.555,-0.918 V -2.539 H 0 Z" />
      </g>
      <g
         transform="matrix(0.35277777,0,0,-0.35277777,67.059724,191.8656)"
         id="g7046">
        <path
           inkscape:connector-curvature="0"
           id="path7048"
           style="fill:#192c4e;fill-opacity:1;fill-rule:nonzero;stroke:none"
           d="M 0,0 C -0.009,0.285 -0.102,0.512 -0.277,0.683 -0.453,0.854 -0.694,0.939 -1.003,0.939 -1.311,0.939 -1.56,0.854 -1.75,0.683 -1.939,0.512 -2.053,0.285 -2.091,0 Z M 0.477,-1.359 C 0.278,-1.615 0.059,-1.794 -0.177,-1.895 -0.415,-1.997 -0.69,-2.049 -1.003,-2.049 c -0.261,0 -0.496,0.047 -0.704,0.139 -0.209,0.093 -0.385,0.217 -0.53,0.374 -0.144,0.156 -0.256,0.341 -0.334,0.554 -0.079,0.214 -0.117,0.441 -0.117,0.683 0,0.256 0.042,0.492 0.127,0.708 0.086,0.216 0.204,0.401 0.356,0.555 0.152,0.154 0.332,0.274 0.541,0.359 0.208,0.086 0.436,0.128 0.683,0.128 0.232,0 0.445,-0.039 0.64,-0.117 C -0.147,1.255 0.02,1.142 0.16,0.992 0.3,0.843 0.408,0.66 0.484,0.445 0.56,0.229 0.598,-0.017 0.598,-0.292 V -0.47 h -2.689 c 0.009,-0.142 0.044,-0.278 0.103,-0.408 0.059,-0.131 0.136,-0.244 0.231,-0.342 0.095,-0.097 0.206,-0.174 0.335,-0.231 0.127,-0.057 0.267,-0.085 0.419,-0.085 0.242,0 0.446,0.042 0.612,0.128 0.166,0.085 0.315,0.21 0.448,0.377 z" />
      </g>
      <g
         transform="matrix(0.35277777,0,0,-0.35277777,67.574251,191.66229)"
         id="g7050">
        <path
           inkscape:connector-curvature="0"
           id="path7052"
           style="fill:#192c4e;fill-opacity:1;fill-rule:nonzero;stroke:none"
           d="m 0,0 c 0,0.152 -0.005,0.294 -0.014,0.427 -0.01,0.132 -0.014,0.254 -0.014,0.362 H 0.498 C 0.498,0.699 0.5,0.609 0.505,0.519 0.51,0.429 0.512,0.337 0.512,0.242 h 0.014 c 0.038,0.08 0.091,0.159 0.16,0.234 0.069,0.077 0.151,0.144 0.246,0.203 0.094,0.059 0.201,0.107 0.32,0.142 0.118,0.036 0.246,0.054 0.384,0.054 0.218,0 0.407,-0.033 0.565,-0.1 C 2.36,0.709 2.492,0.616 2.596,0.498 2.7,0.379 2.777,0.236 2.827,0.068 2.877,-0.101 2.902,-0.285 2.902,-0.484 V -2.539 H 2.347 v 1.998 c 0,0.28 -0.061,0.5 -0.185,0.662 C 2.039,0.282 1.847,0.363 1.586,0.363 1.406,0.363 1.251,0.332 1.12,0.27 0.99,0.209 0.883,0.121 0.8,0.007 0.717,-0.107 0.656,-0.242 0.615,-0.398 0.575,-0.555 0.555,-0.728 0.555,-0.918 V -2.539 H 0 Z" />
      </g>
      <g
         transform="matrix(0.35277777,0,0,-0.35277777,69.544338,191.54929)"
         id="g7054">
        <path
           inkscape:connector-curvature="0"
           id="path7056"
           style="fill:#192c4e;fill-opacity:1;fill-rule:nonzero;stroke:none"
           d="m 0,0 h -0.981 v -1.665 c 0,-0.109 0.002,-0.21 0.006,-0.302 0.005,-0.092 0.024,-0.173 0.057,-0.242 0.034,-0.068 0.083,-0.123 0.15,-0.163 0.066,-0.041 0.161,-0.061 0.284,-0.061 0.081,0 0.164,0.01 0.249,0.029 0.086,0.018 0.166,0.047 0.242,0.085 l 0.021,-0.505 c -0.095,-0.043 -0.2,-0.074 -0.316,-0.092 -0.116,-0.019 -0.227,-0.029 -0.331,-0.029 -0.199,0 -0.358,0.026 -0.476,0.078 -0.119,0.052 -0.211,0.126 -0.278,0.221 -0.067,0.095 -0.11,0.212 -0.131,0.352 -0.021,0.14 -0.033,0.295 -0.033,0.466 V 0 h -0.725 v 0.469 h 0.725 v 0.946 h 0.556 V 0.469 H 0 Z" />
      </g>
      <g
         transform="matrix(0.35277777,0,0,-0.35277777,69.922622,192.24952)"
         id="g7058">
        <path
           inkscape:connector-curvature="0"
           id="path7060"
           style="fill:#192c4e;fill-opacity:1;fill-rule:nonzero;stroke:none"
           d="m 0,0 c 0.109,-0.137 0.229,-0.247 0.359,-0.327 0.131,-0.081 0.296,-0.121 0.495,-0.121 0.085,0 0.172,0.01 0.259,0.028 0.088,0.019 0.168,0.05 0.239,0.093 0.071,0.043 0.128,0.096 0.17,0.16 0.043,0.064 0.064,0.141 0.064,0.231 0,0.09 -0.02,0.164 -0.06,0.221 C 1.485,0.341 1.432,0.39 1.366,0.43 1.299,0.47 1.224,0.503 1.138,0.526 1.053,0.55 0.965,0.571 0.875,0.591 0.719,0.624 0.569,0.662 0.427,0.704 0.285,0.747 0.16,0.803 0.054,0.871 -0.053,0.94 -0.139,1.029 -0.202,1.138 c -0.065,0.109 -0.096,0.249 -0.096,0.42 0,0.161 0.035,0.303 0.106,0.427 0.071,0.123 0.166,0.225 0.285,0.305 0.118,0.081 0.251,0.143 0.398,0.186 0.147,0.042 0.299,0.063 0.455,0.063 0.237,0 0.457,-0.047 0.658,-0.142 C 1.806,2.302 1.963,2.148 2.077,1.935 L 1.615,1.629 C 1.544,1.748 1.45,1.844 1.334,1.917 1.218,1.99 1.077,2.027 0.911,2.027 0.835,2.027 0.758,2.018 0.68,1.999 0.601,1.98 0.531,1.951 0.47,1.914 0.408,1.876 0.357,1.827 0.317,1.768 0.276,1.709 0.256,1.641 0.256,1.565 0.256,1.494 0.279,1.433 0.324,1.383 0.369,1.334 0.431,1.29 0.509,1.252 0.587,1.214 0.677,1.181 0.779,1.153 0.881,1.124 0.986,1.1 1.096,1.081 1.242,1.053 1.382,1.016 1.515,0.971 1.648,0.926 1.764,0.865 1.864,0.79 1.963,0.714 2.042,0.619 2.098,0.505 2.155,0.391 2.184,0.252 2.184,0.085 2.184,-0.104 2.146,-0.265 2.07,-0.398 1.994,-0.531 1.894,-0.639 1.768,-0.722 1.642,-0.805 1.5,-0.865 1.341,-0.903 1.182,-0.941 1.02,-0.96 0.854,-0.96 c -0.285,0 -0.53,0.044 -0.737,0.132 -0.206,0.087 -0.392,0.25 -0.558,0.486 z" />
      </g>
    </g>
  </g>
</svg>
